<svg xmlns="http://www.w3.org/2000/svg" viewBox="0 0 1608.19 1572.92"><defs><style>.cls-1{fill:#ccc;}.cls-2{fill:#999;}.cls-2,.cls-3{opacity:0.5;}.cls-3{fill:gray;}</style></defs><title>logo</title><g id="forside2"><polygon class="cls-1" points="1455.19 785.68 1146.82 477.31 1146.82 1094.05 1455.19 785.68"/><polygon class="cls-1" points="836.96 170 528.59 478.37 1145.33 478.37 836.96 170"/><polygon class="cls-1" points="836.96 1403.91 1145.33 1095.55 528.59 1095.55 836.96 1403.91"/><polygon class="cls-1" points="220 785.68 528.37 1094.05 528.37 477.31 220 785.68"/><polyline class="cls-1" points="844.69 527.41 530.61 1094.72 1142.85 1097.64 844.69 527.41"/><polygon class="cls-2" points="530.28 1094.71 938.65 1096.66 755.19 689.09 530.28 1094.71"/><polygon class="cls-2" points="564.19 1094.91 1142.49 1097.64 959.19 745.91 564.19 1094.91"/><polygon class="cls-3" points="530.97 1094.72 1143.46 1097.64 615.19 938.91 530.97 1094.72"/></g></svg>
